<svg width="137" height="127" viewBox="0 0 137 127" fill="none" xmlns="http://www.w3.org/2000/svg">
<rect x="2" y="2" width="133" height="123" rx="61.5" stroke="white" stroke-width="4"/>
<path d="M68.5 28.8333C48.5118 28.8333 32.25 44.1605 32.25 63C32.25 71.6134 35.6756 79.4683 41.2762 85.4885C45.7713 90.6818 53.1155 95.964 64.6176 96.9617C67.1968 97.2307 69.7996 97.2307 72.3788 96.9617C83.8845 95.964 91.2251 90.6784 95.7201 85.4885C101.537 79.2798 104.748 71.2828 104.75 63C104.75 44.1605 88.4883 28.8333 68.5 28.8333ZM42.0701 51.807C42.6284 52.1145 43.1866 52.4288 43.7231 52.75C45.1586 53.6042 46.5905 54.4583 48.3849 55.1007C50.1756 55.7396 52.3289 56.1667 55.1963 56.1667C58.0673 56.1667 60.2205 55.7396 62.0149 55.0973C63.8093 54.4549 65.2448 53.6042 66.6803 52.75C68.1158 51.8958 69.5513 51.0417 71.3456 50.3993C73.1364 49.7604 75.2896 49.3333 78.1606 49.3333C81.0316 49.3333 83.1849 49.7604 84.9756 50.4028C86.77 51.0417 88.2055 51.8958 89.641 52.75C91.0765 53.6042 92.512 54.4583 94.3064 55.1007C94.9516 55.3296 95.6621 55.5175 96.4125 55.6849C97.1049 58.0151 97.5 60.4614 97.5 63C97.5 65.8803 97.0179 68.6512 96.1406 71.2581C95.1945 71.9243 93.4835 72.8776 90.424 73.8411C87.6364 74.7158 84.363 75.4059 80.6909 75.8979C72.5986 76.9195 64.3978 76.9195 56.3055 75.8979C52.6334 75.4059 49.36 74.7158 46.5724 73.8411C43.5129 72.8776 41.8019 71.9243 40.8558 71.2581C38.6954 64.8558 39.1281 57.9263 42.0701 51.807Z" fill="white"/>
<path d="M55.8125 69.8333C58.8155 69.8333 61.25 67.5388 61.25 64.7083C61.25 61.8779 58.8155 59.5833 55.8125 59.5833C52.8095 59.5833 50.375 61.8779 50.375 64.7083C50.375 67.5388 52.8095 69.8333 55.8125 69.8333Z" fill="white"/>
<path d="M81.1875 69.8333C84.1905 69.8333 86.625 67.5388 86.625 64.7083C86.625 61.8779 84.1905 59.5833 81.1875 59.5833C78.1845 59.5833 75.75 61.8779 75.75 64.7083C75.75 67.5388 78.1845 69.8333 81.1875 69.8333Z" fill="white"/>
</svg>
