<svg width="137" height="127" viewBox="0 0 137 127" fill="none" xmlns="http://www.w3.org/2000/svg">
<rect x="2" y="2" width="133" height="123" rx="61.5" stroke="white" stroke-width="4"/>
<path d="M88.8333 85.8361C88.8333 62.7435 69.7678 43.9583 46.3333 43.9583V49.5417C66.6426 49.5417 83.1666 65.8227 83.1666 85.8361H88.8333Z" fill="white"/>
<path d="M68.9999 85.8361H74.6666C74.6666 70.4401 61.9563 57.9167 46.3333 57.9167V63.5C58.8311 63.5 68.9999 73.5193 68.9999 85.8361Z" fill="white"/>
<path d="M51.9999 85.8333C55.1295 85.8333 57.6666 83.3336 57.6666 80.25C57.6666 77.1664 55.1295 74.6667 51.9999 74.6667C48.8703 74.6667 46.3333 77.1664 46.3333 80.25C46.3333 83.3336 48.8703 85.8333 51.9999 85.8333Z" fill="white"/>
</svg>
