<svg width="137" height="127" viewBox="0 0 137 127" fill="none" xmlns="http://www.w3.org/2000/svg">
<path d="M72.303 31.678H79.8864V38.7966H72.303V31.678ZM83.6667 31.678H91.25V38.7966H83.6667V31.678ZM83.6667 42.3559H91.25V49.4746H83.6667V42.3559ZM95.0417 31.678H102.625V38.7966H95.0417V31.678ZM95.0417 42.3559H102.625V49.4746H95.0417V42.3559ZM95.0417 53.0339H102.625V60.1525H95.0417V53.0339ZM38.2122 63.7119V95.7458C38.2122 96.6898 38.6116 97.5951 39.3227 98.2626C40.0338 98.9301 40.9982 99.3051 42.0038 99.3051H72.2917C73.2973 99.3051 74.2617 98.9301 74.9728 98.2626C75.6838 97.5951 76.0833 96.6898 76.0833 95.7458V63.7119C76.0833 59.9359 74.4854 56.3146 71.6411 53.6446C68.7968 50.9746 64.9391 49.4746 60.9167 49.4746H53.3788C49.3564 49.4746 45.4987 50.9746 42.6544 53.6446C39.8101 56.3146 38.2122 59.9359 38.2122 63.7119ZM49.553 28.1186H64.7197V42.3559H49.553V28.1186Z" fill="white"/>
<rect x="2" y="2" width="133" height="123" rx="61.5" stroke="white" stroke-width="4"/>
</svg>
