<svg width="137" height="127" viewBox="0 0 137 127" fill="none" xmlns="http://www.w3.org/2000/svg">
<rect x="2" y="2" width="133" height="123" rx="61.5" stroke="white" stroke-width="4"/>
<path d="M96.625 57.25H52.875V48.2281C52.875 45.1125 54.9938 42.2188 58.0656 41.7125C58.9629 41.5598 59.8827 41.6047 60.7608 41.8439C61.639 42.0831 62.4544 42.511 63.1503 43.0977C63.8461 43.6843 64.4057 44.4157 64.7899 45.2408C65.1741 46.0659 65.3738 46.9648 65.375 47.875H71.625C71.6235 46.1291 71.2565 44.4028 70.5477 42.8072C69.8389 41.2116 68.8039 39.7821 67.5093 38.6106C66.2148 37.4391 64.6893 36.5515 63.0311 36.005C61.3729 35.4585 59.6187 35.2652 57.8813 35.4375C51.3844 36.0688 46.625 41.9031 46.625 48.4313V57.25H40.375C39.5462 57.25 38.7513 57.5792 38.1653 58.1653C37.5792 58.7513 37.25 59.5462 37.25 60.375V66.625C37.25 74.7688 42.4813 81.6969 49.75 84.2813V94.75H56V85.375H81V94.75H87.25V84.2813C94.5188 81.6969 99.75 74.7688 99.75 66.625V60.375C99.75 59.5462 99.4208 58.7513 98.8347 58.1653C98.2487 57.5792 97.4538 57.25 96.625 57.25Z" fill="white"/>
</svg>
