<svg width="137" height="127" viewBox="0 0 137 127" fill="none" xmlns="http://www.w3.org/2000/svg">
<rect x="2" y="2" width="133" height="123" rx="61.5" stroke="white" stroke-width="4"/>
<path d="M62.8333 46.3125C62.8333 40.2812 57.9925 35.375 52.0417 35.375C46.0908 35.375 41.25 40.2812 41.25 46.3125C41.25 52.3438 46.0908 57.25 52.0417 57.25C53.7786 57.2378 55.4861 56.7947 57.0151 55.9594L64.2825 63.8594L57.1353 71.1031C55.5757 70.2278 53.8244 69.7626 52.0417 69.75C46.0908 69.75 41.25 74.6562 41.25 80.6875C41.25 86.7188 46.0908 91.625 52.0417 91.625C57.9925 91.625 62.8333 86.7188 62.8333 80.6875C62.8333 78.8094 62.3215 77.0687 61.4952 75.525L68.4913 68.4375L84.4167 85.7531C86.151 87.5114 88.5034 88.4995 90.9564 88.5H99.8333L60.8292 52.6187C62.081 50.8312 62.8333 48.6656 62.8333 46.3125ZM52.0417 51C49.4918 51 47.4167 48.8969 47.4167 46.3125C47.4167 43.7281 49.4918 41.625 52.0417 41.625C54.5916 41.625 56.6667 43.7281 56.6667 46.3125C56.6667 48.8969 54.5916 51 52.0417 51ZM52.0417 85.375C49.4918 85.375 47.4167 83.2719 47.4167 80.6875C47.4167 78.1031 49.4918 76 52.0417 76C54.5916 76 56.6667 78.1031 56.6667 80.6875C56.6667 83.2719 54.5916 85.375 52.0417 85.375Z" fill="white"/>
<path d="M84.4167 41.2469L72.9868 55.0406L77.3466 59.4594L99.8334 38.5H90.9565C88.5034 38.5005 86.151 39.4886 84.4167 41.2469Z" fill="white"/>
</svg>
